<svg width="267" height="90" viewBox="0 0 267 90" fill="none" xmlns="http://www.w3.org/2000/svg">
<rect width="266.667" height="90" fill="#FA2408"/>
<path d="M31.5228 46.3477H23.929V45.0469H31.5228C33.1634 45.0469 34.4993 44.7773 35.5306 44.2383C36.5618 43.6875 37.3118 42.9551 37.7806 42.041C38.2611 41.1152 38.5013 40.0957 38.5013 38.9824C38.5013 37.834 38.2611 36.7852 37.7806 35.8359C37.3118 34.8867 36.5618 34.1309 35.5306 33.5684C34.4993 32.9941 33.1634 32.707 31.5228 32.707H24.6673V57H23.2435V31.4062H31.5228C33.3626 31.4062 34.9036 31.7227 36.1458 32.3555C37.3997 32.9883 38.3431 33.873 38.9759 35.0098C39.6087 36.1348 39.9251 37.4473 39.9251 38.9473C39.9251 40.4707 39.6087 41.7891 38.9759 42.9023C38.3431 44.0039 37.4056 44.8535 36.1634 45.4512C34.9212 46.0488 33.3743 46.3477 31.5228 46.3477ZM43.0013 47.8242V47.1562C43.0013 45.7617 43.2005 44.4844 43.599 43.3242C44.0091 42.1641 44.5833 41.1621 45.3216 40.3184C46.0599 39.4629 46.9388 38.8008 47.9583 38.332C48.9896 37.8633 50.1322 37.6289 51.3861 37.6289C52.64 37.6289 53.7825 37.8633 54.8138 38.332C55.845 38.8008 56.7298 39.4629 57.4681 40.3184C58.2181 41.1621 58.7923 42.1641 59.1908 43.3242C59.5892 44.4844 59.7884 45.7617 59.7884 47.1562V47.8242C59.7884 49.2188 59.5892 50.4961 59.1908 51.6562C58.7923 52.8164 58.224 53.8242 57.4857 54.6797C56.7474 55.5234 55.8626 56.1797 54.8314 56.6484C53.8118 57.1172 52.6751 57.3516 51.4212 57.3516C50.1556 57.3516 49.0072 57.1172 47.9759 56.6484C46.9564 56.1797 46.0716 55.5234 45.3216 54.6797C44.5833 53.8242 44.0091 52.8164 43.599 51.6562C43.2005 50.4961 43.0013 49.2188 43.0013 47.8242ZM44.4075 47.1562V47.8242C44.4075 48.9258 44.5599 49.9746 44.8646 50.9707C45.181 51.9551 45.638 52.834 46.2357 53.6074C46.8333 54.3691 47.5658 54.9727 48.4329 55.418C49.3001 55.8516 50.2962 56.0684 51.4212 56.0684C52.5228 56.0684 53.5072 55.8516 54.3743 55.418C55.2415 54.9727 55.9681 54.3691 56.554 53.6074C57.1517 52.834 57.6029 51.9551 57.9075 50.9707C58.224 49.9746 58.3822 48.9258 58.3822 47.8242V47.1562C58.3822 46.0781 58.224 45.0469 57.9075 44.0625C57.6029 43.0781 57.1517 42.1992 56.554 41.4258C55.9564 40.6523 55.224 40.043 54.3568 39.5977C53.4896 39.1406 52.4993 38.9121 51.3861 38.9121C50.2728 38.9121 49.2825 39.1406 48.4154 39.5977C47.5599 40.043 46.8275 40.6523 46.2181 41.4258C45.6204 42.1992 45.1693 43.0781 44.8646 44.0625C44.5599 45.0469 44.4075 46.0781 44.4075 47.1562ZM65.6947 42.041V57H64.306V37.9805H65.6771L65.6947 42.041ZM65.431 46.0312L64.7454 45.2227C64.8509 44.2148 65.097 43.2539 65.4837 42.3398C65.8822 41.4258 66.4036 40.6172 67.0482 39.9141C67.7044 39.2109 68.4661 38.6543 69.3333 38.2441C70.2122 37.834 71.179 37.6289 72.2337 37.6289C73.1829 37.6289 74.0325 37.7637 74.7825 38.0332C75.5325 38.291 76.1654 38.7012 76.681 39.2637C77.2083 39.8262 77.6068 40.5527 77.8763 41.4434C78.1458 42.3223 78.2806 43.3945 78.2806 44.6602V57H76.8919V44.6602C76.8919 43.1602 76.6868 42 76.2767 41.1797C75.8665 40.3477 75.2923 39.7617 74.554 39.4219C73.8275 39.082 72.9779 38.9121 72.0052 38.9121C70.8802 38.9121 69.9075 39.1641 69.0872 39.668C68.2786 40.1602 67.6107 40.7871 67.0833 41.5488C66.556 42.2988 66.1517 43.0781 65.8704 43.8867C65.6009 44.6953 65.4544 45.4102 65.431 46.0312ZM90.8138 37.9805V39.2461H81.7083V37.9805H90.8138ZM85.224 32.9531H86.6302V52.4121C86.6302 53.4316 86.7533 54.2051 86.9993 54.7324C87.2572 55.248 87.5911 55.5996 88.0013 55.7871C88.4232 55.9629 88.8743 56.0508 89.3548 56.0508C89.6947 56.0508 90.0052 56.0332 90.2865 55.998C90.5794 55.9629 90.8724 55.9219 91.1654 55.875L91.2884 57.1055C91.0306 57.1875 90.6966 57.2461 90.2865 57.2812C89.8763 57.3281 89.513 57.3516 89.1966 57.3516C88.3997 57.3516 87.7025 57.2051 87.1048 56.9121C86.5072 56.6191 86.0443 56.1152 85.7161 55.4004C85.388 54.6738 85.224 53.6777 85.224 52.4121V32.9531ZM102.574 57.3516C101.378 57.3516 100.271 57.123 99.2513 56.666C98.2318 56.1973 97.3411 55.5469 96.5794 54.7148C95.8177 53.8711 95.22 52.875 94.7865 51.7266C94.3646 50.5781 94.1536 49.3184 94.1536 47.9473V47.1738C94.1536 45.7559 94.3646 44.4668 94.7865 43.3066C95.22 42.1348 95.806 41.127 96.5443 40.2832C97.2825 39.4277 98.1322 38.7715 99.0931 38.3145C100.066 37.8574 101.103 37.6289 102.204 37.6289C103.318 37.6289 104.326 37.834 105.228 38.2441C106.13 38.6543 106.904 39.2285 107.548 39.9668C108.193 40.7051 108.685 41.584 109.025 42.6035C109.365 43.623 109.535 44.748 109.535 45.9785V47.1562H95.0325V45.873H108.146V45.6445C108.134 44.4492 107.888 43.3418 107.408 42.3223C106.939 41.3027 106.265 40.4824 105.386 39.8613C104.507 39.2285 103.447 38.9121 102.204 38.9121C101.208 38.9121 100.3 39.123 99.4798 39.5449C98.6712 39.9668 97.974 40.5527 97.388 41.3027C96.8021 42.041 96.3509 42.9141 96.0345 43.9219C95.7181 44.918 95.5599 46.002 95.5599 47.1738V47.9473C95.5599 49.0723 95.7357 50.127 96.0872 51.1113C96.4388 52.0957 96.931 52.9629 97.5638 53.7129C98.1966 54.4512 98.9408 55.0312 99.7962 55.4531C100.652 55.875 101.589 56.0859 102.609 56.0859C103.71 56.0859 104.718 55.8926 105.632 55.5059C106.546 55.1191 107.378 54.4395 108.128 53.4668L109.042 54.1523C108.62 54.7617 108.111 55.3066 107.513 55.7871C106.915 56.2676 106.206 56.6484 105.386 56.9297C104.577 57.2109 103.64 57.3516 102.574 57.3516ZM121.101 57H115.529L115.564 52.8867H121.101C122.484 52.8867 123.65 52.5762 124.599 51.9551C125.548 51.3223 126.263 50.4023 126.743 49.1953C127.236 47.9883 127.482 46.5293 127.482 44.8184V43.5703C127.482 42.2578 127.341 41.1035 127.06 40.1074C126.79 39.1113 126.386 38.2734 125.847 37.5938C125.308 36.9141 124.646 36.4043 123.861 36.0645C123.076 35.7129 122.173 35.5371 121.154 35.5371H115.423V31.4062H121.154C122.865 31.4062 124.429 31.6992 125.847 32.2852C127.277 32.8594 128.513 33.6855 129.556 34.7637C130.599 35.8418 131.402 37.1309 131.964 38.6309C132.538 40.1191 132.826 41.7773 132.826 43.6055V44.8184C132.826 46.6348 132.538 48.293 131.964 49.793C131.402 51.293 130.599 52.582 129.556 53.6602C128.525 54.7266 127.288 55.5527 125.847 56.1387C124.417 56.7129 122.835 57 121.101 57ZM118.517 31.4062V57H113.243V31.4062H118.517ZM135.533 47.6836V47.3145C135.533 45.9199 135.732 44.6367 136.13 43.4648C136.529 42.2812 137.109 41.2559 137.87 40.3887C138.632 39.5215 139.57 38.8477 140.683 38.3672C141.796 37.875 143.074 37.6289 144.515 37.6289C145.956 37.6289 147.24 37.875 148.365 38.3672C149.49 38.8477 150.433 39.5215 151.195 40.3887C151.968 41.2559 152.554 42.2812 152.952 43.4648C153.351 44.6367 153.55 45.9199 153.55 47.3145V47.6836C153.55 49.0664 153.351 50.3496 152.952 51.5332C152.554 52.7051 151.968 53.7305 151.195 54.6094C150.433 55.4766 149.495 56.1504 148.382 56.6309C147.269 57.1113 145.992 57.3516 144.55 57.3516C143.109 57.3516 141.826 57.1113 140.701 56.6309C139.587 56.1504 138.644 55.4766 137.87 54.6094C137.109 53.7305 136.529 52.7051 136.13 51.5332C135.732 50.3496 135.533 49.0664 135.533 47.6836ZM140.595 47.3145V47.6836C140.595 48.4805 140.665 49.2246 140.806 49.916C140.947 50.6074 141.169 51.2168 141.474 51.7441C141.79 52.2598 142.201 52.6641 142.704 52.957C143.208 53.25 143.824 53.3965 144.55 53.3965C145.253 53.3965 145.857 53.25 146.361 52.957C146.865 52.6641 147.269 52.2598 147.574 51.7441C147.878 51.2168 148.101 50.6074 148.242 49.916C148.394 49.2246 148.47 48.4805 148.47 47.6836V47.3145C148.47 46.541 148.394 45.8145 148.242 45.1348C148.101 44.4434 147.872 43.834 147.556 43.3066C147.251 42.7676 146.847 42.3457 146.343 42.041C145.839 41.7363 145.23 41.584 144.515 41.584C143.8 41.584 143.191 41.7363 142.687 42.041C142.195 42.3457 141.79 42.7676 141.474 43.3066C141.169 43.834 140.947 44.4434 140.806 45.1348C140.665 45.8145 140.595 46.541 140.595 47.3145ZM167.911 52.4473V37.9805H172.974V57H168.21L167.911 52.4473ZM168.474 48.5449L169.968 48.5098C169.968 49.7754 169.822 50.9531 169.529 52.043C169.236 53.1211 168.796 54.0586 168.21 54.8555C167.624 55.6406 166.886 56.2559 165.995 56.7012C165.105 57.1348 164.056 57.3516 162.849 57.3516C161.923 57.3516 161.068 57.2227 160.283 56.9648C159.509 56.6953 158.841 56.2793 158.279 55.7168C157.728 55.1426 157.294 54.4102 156.978 53.5195C156.673 52.6172 156.521 51.5332 156.521 50.2676V37.9805H161.583V50.3027C161.583 50.8652 161.648 51.3398 161.777 51.7266C161.917 52.1133 162.111 52.4297 162.357 52.6758C162.603 52.9219 162.89 53.0977 163.218 53.2031C163.558 53.3086 163.933 53.3613 164.343 53.3613C165.386 53.3613 166.206 53.1504 166.804 52.7285C167.413 52.3066 167.841 51.7324 168.087 51.0059C168.345 50.2676 168.474 49.4473 168.474 48.5449ZM181.904 42.1289V57H176.841V37.9805H181.605L181.904 42.1289ZM187.634 37.8574L187.546 42.5508C187.3 42.5156 187.001 42.4863 186.65 42.4629C186.31 42.4277 185.999 42.4102 185.718 42.4102C185.003 42.4102 184.382 42.5039 183.855 42.6914C183.339 42.8672 182.906 43.1309 182.554 43.4824C182.214 43.834 181.956 44.2617 181.781 44.7656C181.617 45.2695 181.523 45.8438 181.499 46.4883L180.48 46.1719C180.48 44.9414 180.603 43.8105 180.849 42.7793C181.095 41.7363 181.452 40.8281 181.921 40.0547C182.402 39.2812 182.988 38.6836 183.679 38.2617C184.37 37.8398 185.161 37.6289 186.052 37.6289C186.333 37.6289 186.62 37.6523 186.913 37.6992C187.206 37.7344 187.447 37.7871 187.634 37.8574ZM199.693 52.7109V44.2383C199.693 43.6289 199.593 43.1074 199.394 42.6738C199.195 42.2285 198.884 41.8828 198.462 41.6367C198.052 41.3906 197.519 41.2676 196.863 41.2676C196.3 41.2676 195.814 41.3672 195.404 41.5664C194.993 41.7539 194.677 42.0293 194.454 42.3926C194.232 42.7441 194.12 43.1602 194.12 43.6406H189.058C189.058 42.832 189.245 42.0645 189.62 41.3379C189.995 40.6113 190.54 39.9727 191.255 39.4219C191.97 38.8594 192.82 38.4199 193.804 38.1035C194.8 37.7871 195.913 37.6289 197.144 37.6289C198.62 37.6289 199.933 37.875 201.081 38.3672C202.23 38.8594 203.132 39.5977 203.788 40.582C204.456 41.5664 204.79 42.7969 204.79 44.2734V52.4121C204.79 53.4551 204.855 54.3105 204.984 54.9785C205.113 55.6348 205.3 56.209 205.546 56.7012V57H200.431C200.185 56.4844 199.997 55.8398 199.868 55.0664C199.751 54.2812 199.693 53.4961 199.693 52.7109ZM200.361 45.416L200.396 48.2812H197.566C196.898 48.2812 196.318 48.3574 195.826 48.5098C195.333 48.6621 194.929 48.8789 194.613 49.1602C194.296 49.4297 194.062 49.7461 193.91 50.1094C193.769 50.4727 193.699 50.8711 193.699 51.3047C193.699 51.7383 193.798 52.1309 193.997 52.4824C194.197 52.8223 194.484 53.0918 194.859 53.291C195.234 53.4785 195.673 53.5723 196.177 53.5723C196.939 53.5723 197.601 53.4199 198.163 53.1152C198.726 52.8105 199.16 52.4355 199.464 51.9902C199.781 51.5449 199.945 51.123 199.956 50.7246L201.292 52.8691C201.105 53.3496 200.847 53.8477 200.519 54.3633C200.202 54.8789 199.798 55.3652 199.306 55.8223C198.814 56.2676 198.222 56.6367 197.531 56.9297C196.839 57.2109 196.019 57.3516 195.07 57.3516C193.863 57.3516 192.767 57.1113 191.783 56.6309C190.81 56.1387 190.036 55.4648 189.462 54.6094C188.9 53.7422 188.618 52.7578 188.618 51.6562C188.618 50.6602 188.806 49.7754 189.181 49.002C189.556 48.2285 190.107 47.5781 190.833 47.0508C191.572 46.5117 192.492 46.1074 193.593 45.8379C194.695 45.5566 195.972 45.416 197.425 45.416H200.361ZM219.925 52.8516V30H225.023V57H220.435L219.925 52.8516ZM207.902 47.7188V47.3496C207.902 45.8965 208.066 44.5781 208.394 43.3945C208.722 42.1992 209.202 41.1738 209.835 40.3184C210.468 39.4629 211.247 38.8008 212.173 38.332C213.099 37.8633 214.154 37.6289 215.337 37.6289C216.451 37.6289 217.423 37.8633 218.255 38.332C219.099 38.8008 219.814 39.4688 220.4 40.3359C220.997 41.1914 221.478 42.2051 221.841 43.377C222.204 44.5371 222.468 45.8086 222.632 47.1914V48C222.468 49.3242 222.204 50.5547 221.841 51.6914C221.478 52.8281 220.997 53.8242 220.4 54.6797C219.814 55.5234 219.099 56.1797 218.255 56.6484C217.411 57.1172 216.427 57.3516 215.302 57.3516C214.118 57.3516 213.064 57.1113 212.138 56.6309C211.224 56.1504 210.451 55.4766 209.818 54.6094C209.197 53.7422 208.722 52.7227 208.394 51.5508C208.066 50.3789 207.902 49.1016 207.902 47.7188ZM212.964 47.3496V47.7188C212.964 48.5039 213.023 49.2363 213.14 49.916C213.269 50.5957 213.474 51.1992 213.755 51.7266C214.048 52.2422 214.423 52.6465 214.88 52.9395C215.349 53.2207 215.917 53.3613 216.585 53.3613C217.452 53.3613 218.167 53.168 218.73 52.7812C219.292 52.3828 219.72 51.8379 220.013 51.1465C220.318 50.4551 220.493 49.6582 220.54 48.7559V46.4531C220.505 45.7148 220.4 45.0527 220.224 44.4668C220.06 43.8691 219.814 43.3594 219.486 42.9375C219.169 42.5156 218.771 42.1875 218.29 41.9531C217.822 41.7188 217.265 41.6016 216.62 41.6016C215.964 41.6016 215.402 41.7539 214.933 42.0586C214.464 42.3516 214.083 42.7559 213.79 43.2715C213.509 43.7871 213.298 44.3965 213.158 45.0996C213.029 45.791 212.964 46.541 212.964 47.3496ZM239.243 52.7109V44.2383C239.243 43.6289 239.144 43.1074 238.945 42.6738C238.745 42.2285 238.435 41.8828 238.013 41.6367C237.603 41.3906 237.07 41.2676 236.413 41.2676C235.851 41.2676 235.365 41.3672 234.954 41.5664C234.544 41.7539 234.228 42.0293 234.005 42.3926C233.783 42.7441 233.671 43.1602 233.671 43.6406H228.609C228.609 42.832 228.796 42.0645 229.171 41.3379C229.546 40.6113 230.091 39.9727 230.806 39.4219C231.521 38.8594 232.37 38.4199 233.355 38.1035C234.351 37.7871 235.464 37.6289 236.695 37.6289C238.171 37.6289 239.484 37.875 240.632 38.3672C241.781 38.8594 242.683 39.5977 243.339 40.582C244.007 41.5664 244.341 42.7969 244.341 44.2734V52.4121C244.341 53.4551 244.406 54.3105 244.535 54.9785C244.663 55.6348 244.851 56.209 245.097 56.7012V57H239.982C239.736 56.4844 239.548 55.8398 239.419 55.0664C239.302 54.2812 239.243 53.4961 239.243 52.7109ZM239.911 45.416L239.947 48.2812H237.117C236.449 48.2812 235.868 48.3574 235.376 48.5098C234.884 48.6621 234.48 48.8789 234.163 49.1602C233.847 49.4297 233.613 49.7461 233.46 50.1094C233.32 50.4727 233.249 50.8711 233.249 51.3047C233.249 51.7383 233.349 52.1309 233.548 52.4824C233.747 52.8223 234.035 53.0918 234.41 53.291C234.785 53.4785 235.224 53.5723 235.728 53.5723C236.49 53.5723 237.152 53.4199 237.714 53.1152C238.277 52.8105 238.71 52.4355 239.015 51.9902C239.331 51.5449 239.495 51.123 239.507 50.7246L240.843 52.8691C240.656 53.3496 240.398 53.8477 240.07 54.3633C239.753 54.8789 239.349 55.3652 238.857 55.8223C238.365 56.2676 237.773 56.6367 237.081 56.9297C236.39 57.2109 235.57 57.3516 234.62 57.3516C233.413 57.3516 232.318 57.1113 231.333 56.6309C230.361 56.1387 229.587 55.4648 229.013 54.6094C228.451 53.7422 228.169 52.7578 228.169 51.6562C228.169 50.6602 228.357 49.7754 228.732 49.002C229.107 48.2285 229.658 47.5781 230.384 47.0508C231.122 46.5117 232.042 46.1074 233.144 45.8379C234.245 45.5566 235.523 45.416 236.976 45.416H239.911Z" fill="white"/>
</svg>
