<svg width="223" height="28" viewBox="0 0 223 28" fill="none" xmlns="http://www.w3.org/2000/svg">
<path d="M9.18945 16.3477H1.5957V15.0469H9.18945C10.8301 15.0469 12.166 14.7773 13.1973 14.2383C14.2285 13.6875 14.9785 12.9551 15.4473 12.041C15.9277 11.1152 16.168 10.0957 16.168 8.98242C16.168 7.83398 15.9277 6.78516 15.4473 5.83594C14.9785 4.88672 14.2285 4.13086 13.1973 3.56836C12.166 2.99414 10.8301 2.70703 9.18945 2.70703H2.33398V27H0.910156V1.40625H9.18945C11.0293 1.40625 12.5703 1.72266 13.8125 2.35547C15.0664 2.98828 16.0098 3.87305 16.6426 5.00977C17.2754 6.13477 17.5918 7.44727 17.5918 8.94727C17.5918 10.4707 17.2754 11.7891 16.6426 12.9023C16.0098 14.0039 15.0723 14.8535 13.8301 15.4512C12.5879 16.0488 11.041 16.3477 9.18945 16.3477ZM20.668 17.8242V17.1562C20.668 15.7617 20.8672 14.4844 21.2656 13.3242C21.6758 12.1641 22.25 11.1621 22.9883 10.3184C23.7266 9.46289 24.6055 8.80078 25.625 8.33203C26.6562 7.86328 27.7988 7.62891 29.0527 7.62891C30.3066 7.62891 31.4492 7.86328 32.4805 8.33203C33.5117 8.80078 34.3965 9.46289 35.1348 10.3184C35.8848 11.1621 36.459 12.1641 36.8574 13.3242C37.2559 14.4844 37.4551 15.7617 37.4551 17.1562V17.8242C37.4551 19.2188 37.2559 20.4961 36.8574 21.6562C36.459 22.8164 35.8906 23.8242 35.1523 24.6797C34.4141 25.5234 33.5293 26.1797 32.498 26.6484C31.4785 27.1172 30.3418 27.3516 29.0879 27.3516C27.8223 27.3516 26.6738 27.1172 25.6426 26.6484C24.623 26.1797 23.7383 25.5234 22.9883 24.6797C22.25 23.8242 21.6758 22.8164 21.2656 21.6562C20.8672 20.4961 20.668 19.2188 20.668 17.8242ZM22.0742 17.1562V17.8242C22.0742 18.9258 22.2266 19.9746 22.5312 20.9707C22.8477 21.9551 23.3047 22.834 23.9023 23.6074C24.5 24.3691 25.2324 24.9727 26.0996 25.418C26.9668 25.8516 27.9629 26.0684 29.0879 26.0684C30.1895 26.0684 31.1738 25.8516 32.041 25.418C32.9082 24.9727 33.6348 24.3691 34.2207 23.6074C34.8184 22.834 35.2695 21.9551 35.5742 20.9707C35.8906 19.9746 36.0488 18.9258 36.0488 17.8242V17.1562C36.0488 16.0781 35.8906 15.0469 35.5742 14.0625C35.2695 13.0781 34.8184 12.1992 34.2207 11.4258C33.623 10.6523 32.8906 10.043 32.0234 9.59766C31.1562 9.14062 30.166 8.91211 29.0527 8.91211C27.9395 8.91211 26.9492 9.14062 26.082 9.59766C25.2266 10.043 24.4941 10.6523 23.8848 11.4258C23.2871 12.1992 22.8359 13.0781 22.5312 14.0625C22.2266 15.0469 22.0742 16.0781 22.0742 17.1562ZM43.3613 12.041V27H41.9727V7.98047H43.3438L43.3613 12.041ZM43.0977 16.0312L42.4121 15.2227C42.5176 14.2148 42.7637 13.2539 43.1504 12.3398C43.5488 11.4258 44.0703 10.6172 44.7148 9.91406C45.3711 9.21094 46.1328 8.6543 47 8.24414C47.8789 7.83398 48.8457 7.62891 49.9004 7.62891C50.8496 7.62891 51.6992 7.76367 52.4492 8.0332C53.1992 8.29102 53.832 8.70117 54.3477 9.26367C54.875 9.82617 55.2734 10.5527 55.543 11.4434C55.8125 12.3223 55.9473 13.3945 55.9473 14.6602V27H54.5586V14.6602C54.5586 13.1602 54.3535 12 53.9434 11.1797C53.5332 10.3477 52.959 9.76172 52.2207 9.42188C51.4941 9.08203 50.6445 8.91211 49.6719 8.91211C48.5469 8.91211 47.5742 9.16406 46.7539 9.66797C45.9453 10.1602 45.2773 10.7871 44.75 11.5488C44.2227 12.2988 43.8184 13.0781 43.5371 13.8867C43.2676 14.6953 43.1211 15.4102 43.0977 16.0312ZM68.4805 7.98047V9.24609H59.375V7.98047H68.4805ZM62.8906 2.95312H64.2969V22.4121C64.2969 23.4316 64.4199 24.2051 64.666 24.7324C64.9238 25.248 65.2578 25.5996 65.668 25.7871C66.0898 25.9629 66.541 26.0508 67.0215 26.0508C67.3613 26.0508 67.6719 26.0332 67.9531 25.998C68.2461 25.9629 68.5391 25.9219 68.832 25.875L68.9551 27.1055C68.6973 27.1875 68.3633 27.2461 67.9531 27.2812C67.543 27.3281 67.1797 27.3516 66.8633 27.3516C66.0664 27.3516 65.3691 27.2051 64.7715 26.9121C64.1738 26.6191 63.7109 26.1152 63.3828 25.4004C63.0547 24.6738 62.8906 23.6777 62.8906 22.4121V2.95312ZM80.2402 27.3516C79.0449 27.3516 77.9375 27.123 76.918 26.666C75.8984 26.1973 75.0078 25.5469 74.2461 24.7148C73.4844 23.8711 72.8867 22.875 72.4531 21.7266C72.0312 20.5781 71.8203 19.3184 71.8203 17.9473V17.1738C71.8203 15.7559 72.0312 14.4668 72.4531 13.3066C72.8867 12.1348 73.4727 11.127 74.2109 10.2832C74.9492 9.42773 75.7988 8.77148 76.7598 8.31445C77.7324 7.85742 78.7695 7.62891 79.8711 7.62891C80.9844 7.62891 81.9922 7.83398 82.8945 8.24414C83.7969 8.6543 84.5703 9.22852 85.2148 9.9668C85.8594 10.7051 86.3516 11.584 86.6914 12.6035C87.0312 13.623 87.2012 14.748 87.2012 15.9785V17.1562H72.6992V15.873H85.8125V15.6445C85.8008 14.4492 85.5547 13.3418 85.0742 12.3223C84.6055 11.3027 83.9316 10.4824 83.0527 9.86133C82.1738 9.22852 81.1133 8.91211 79.8711 8.91211C78.875 8.91211 77.9668 9.12305 77.1465 9.54492C76.3379 9.9668 75.6406 10.5527 75.0547 11.3027C74.4688 12.041 74.0176 12.9141 73.7012 13.9219C73.3848 14.918 73.2266 16.002 73.2266 17.1738V17.9473C73.2266 19.0723 73.4023 20.127 73.7539 21.1113C74.1055 22.0957 74.5977 22.9629 75.2305 23.7129C75.8633 24.4512 76.6074 25.0312 77.4629 25.4531C78.3184 25.875 79.2559 26.0859 80.2754 26.0859C81.377 26.0859 82.3848 25.8926 83.2988 25.5059C84.2129 25.1191 85.0449 24.4395 85.7949 23.4668L86.709 24.1523C86.2871 24.7617 85.7773 25.3066 85.1797 25.7871C84.582 26.2676 83.873 26.6484 83.0527 26.9297C82.2441 27.2109 81.3066 27.3516 80.2402 27.3516ZM98.7676 27H93.1953L93.2305 22.8867H98.7676C100.15 22.8867 101.316 22.5762 102.266 21.9551C103.215 21.3223 103.93 20.4023 104.41 19.1953C104.902 17.9883 105.148 16.5293 105.148 14.8184V13.5703C105.148 12.2578 105.008 11.1035 104.727 10.1074C104.457 9.11133 104.053 8.27344 103.514 7.59375C102.975 6.91406 102.312 6.4043 101.527 6.06445C100.742 5.71289 99.8398 5.53711 98.8203 5.53711H93.0898V1.40625H98.8203C100.531 1.40625 102.096 1.69922 103.514 2.28516C104.943 2.85938 106.18 3.68555 107.223 4.76367C108.266 5.8418 109.068 7.13086 109.631 8.63086C110.205 10.1191 110.492 11.7773 110.492 13.6055V14.8184C110.492 16.6348 110.205 18.293 109.631 19.793C109.068 21.293 108.266 22.582 107.223 23.6602C106.191 24.7266 104.955 25.5527 103.514 26.1387C102.084 26.7129 100.502 27 98.7676 27ZM96.1836 1.40625V27H90.9102V1.40625H96.1836ZM113.199 17.6836V17.3145C113.199 15.9199 113.398 14.6367 113.797 13.4648C114.195 12.2812 114.775 11.2559 115.537 10.3887C116.299 9.52148 117.236 8.84766 118.35 8.36719C119.463 7.875 120.74 7.62891 122.182 7.62891C123.623 7.62891 124.906 7.875 126.031 8.36719C127.156 8.84766 128.1 9.52148 128.861 10.3887C129.635 11.2559 130.221 12.2812 130.619 13.4648C131.018 14.6367 131.217 15.9199 131.217 17.3145V17.6836C131.217 19.0664 131.018 20.3496 130.619 21.5332C130.221 22.7051 129.635 23.7305 128.861 24.6094C128.1 25.4766 127.162 26.1504 126.049 26.6309C124.936 27.1113 123.658 27.3516 122.217 27.3516C120.775 27.3516 119.492 27.1113 118.367 26.6309C117.254 26.1504 116.311 25.4766 115.537 24.6094C114.775 23.7305 114.195 22.7051 113.797 21.5332C113.398 20.3496 113.199 19.0664 113.199 17.6836ZM118.262 17.3145V17.6836C118.262 18.4805 118.332 19.2246 118.473 19.916C118.613 20.6074 118.836 21.2168 119.141 21.7441C119.457 22.2598 119.867 22.6641 120.371 22.957C120.875 23.25 121.49 23.3965 122.217 23.3965C122.92 23.3965 123.523 23.25 124.027 22.957C124.531 22.6641 124.936 22.2598 125.24 21.7441C125.545 21.2168 125.768 20.6074 125.908 19.916C126.061 19.2246 126.137 18.4805 126.137 17.6836V17.3145C126.137 16.541 126.061 15.8145 125.908 15.1348C125.768 14.4434 125.539 13.834 125.223 13.3066C124.918 12.7676 124.514 12.3457 124.01 12.041C123.506 11.7363 122.896 11.584 122.182 11.584C121.467 11.584 120.857 11.7363 120.354 12.041C119.861 12.3457 119.457 12.7676 119.141 13.3066C118.836 13.834 118.613 14.4434 118.473 15.1348C118.332 15.8145 118.262 16.541 118.262 17.3145ZM145.578 22.4473V7.98047H150.641V27H145.877L145.578 22.4473ZM146.141 18.5449L147.635 18.5098C147.635 19.7754 147.488 20.9531 147.195 22.043C146.902 23.1211 146.463 24.0586 145.877 24.8555C145.291 25.6406 144.553 26.2559 143.662 26.7012C142.771 27.1348 141.723 27.3516 140.516 27.3516C139.59 27.3516 138.734 27.2227 137.949 26.9648C137.176 26.6953 136.508 26.2793 135.945 25.7168C135.395 25.1426 134.961 24.4102 134.645 23.5195C134.34 22.6172 134.188 21.5332 134.188 20.2676V7.98047H139.25V20.3027C139.25 20.8652 139.314 21.3398 139.443 21.7266C139.584 22.1133 139.777 22.4297 140.023 22.6758C140.27 22.9219 140.557 23.0977 140.885 23.2031C141.225 23.3086 141.6 23.3613 142.01 23.3613C143.053 23.3613 143.873 23.1504 144.471 22.7285C145.08 22.3066 145.508 21.7324 145.754 21.0059C146.012 20.2676 146.141 19.4473 146.141 18.5449ZM159.57 12.1289V27H154.508V7.98047H159.271L159.57 12.1289ZM165.301 7.85742L165.213 12.5508C164.967 12.5156 164.668 12.4863 164.316 12.4629C163.977 12.4277 163.666 12.4102 163.385 12.4102C162.67 12.4102 162.049 12.5039 161.521 12.6914C161.006 12.8672 160.572 13.1309 160.221 13.4824C159.881 13.834 159.623 14.2617 159.447 14.7656C159.283 15.2695 159.189 15.8438 159.166 16.4883L158.146 16.1719C158.146 14.9414 158.27 13.8105 158.516 12.7793C158.762 11.7363 159.119 10.8281 159.588 10.0547C160.068 9.28125 160.654 8.68359 161.346 8.26172C162.037 7.83984 162.828 7.62891 163.719 7.62891C164 7.62891 164.287 7.65234 164.58 7.69922C164.873 7.73438 165.113 7.78711 165.301 7.85742ZM177.359 22.7109V14.2383C177.359 13.6289 177.26 13.1074 177.061 12.6738C176.861 12.2285 176.551 11.8828 176.129 11.6367C175.719 11.3906 175.186 11.2676 174.529 11.2676C173.967 11.2676 173.48 11.3672 173.07 11.5664C172.66 11.7539 172.344 12.0293 172.121 12.3926C171.898 12.7441 171.787 13.1602 171.787 13.6406H166.725C166.725 12.832 166.912 12.0645 167.287 11.3379C167.662 10.6113 168.207 9.97266 168.922 9.42188C169.637 8.85938 170.486 8.41992 171.471 8.10352C172.467 7.78711 173.58 7.62891 174.811 7.62891C176.287 7.62891 177.6 7.875 178.748 8.36719C179.896 8.85938 180.799 9.59766 181.455 10.582C182.123 11.5664 182.457 12.7969 182.457 14.2734V22.4121C182.457 23.4551 182.521 24.3105 182.65 24.9785C182.779 25.6348 182.967 26.209 183.213 26.7012V27H178.098C177.852 26.4844 177.664 25.8398 177.535 25.0664C177.418 24.2812 177.359 23.4961 177.359 22.7109ZM178.027 15.416L178.062 18.2812H175.232C174.564 18.2812 173.984 18.3574 173.492 18.5098C173 18.6621 172.596 18.8789 172.279 19.1602C171.963 19.4297 171.729 19.7461 171.576 20.1094C171.436 20.4727 171.365 20.8711 171.365 21.3047C171.365 21.7383 171.465 22.1309 171.664 22.4824C171.863 22.8223 172.15 23.0918 172.525 23.291C172.9 23.4785 173.34 23.5723 173.844 23.5723C174.605 23.5723 175.268 23.4199 175.83 23.1152C176.393 22.8105 176.826 22.4355 177.131 21.9902C177.447 21.5449 177.611 21.123 177.623 20.7246L178.959 22.8691C178.771 23.3496 178.514 23.8477 178.186 24.3633C177.869 24.8789 177.465 25.3652 176.973 25.8223C176.48 26.2676 175.889 26.6367 175.197 26.9297C174.506 27.2109 173.686 27.3516 172.736 27.3516C171.529 27.3516 170.434 27.1113 169.449 26.6309C168.477 26.1387 167.703 25.4648 167.129 24.6094C166.566 23.7422 166.285 22.7578 166.285 21.6562C166.285 20.6602 166.473 19.7754 166.848 19.002C167.223 18.2285 167.773 17.5781 168.5 17.0508C169.238 16.5117 170.158 16.1074 171.26 15.8379C172.361 15.5566 173.639 15.416 175.092 15.416H178.027ZM197.592 22.8516V0H202.689V27H198.102L197.592 22.8516ZM185.568 17.7188V17.3496C185.568 15.8965 185.732 14.5781 186.061 13.3945C186.389 12.1992 186.869 11.1738 187.502 10.3184C188.135 9.46289 188.914 8.80078 189.84 8.33203C190.766 7.86328 191.82 7.62891 193.004 7.62891C194.117 7.62891 195.09 7.86328 195.922 8.33203C196.766 8.80078 197.48 9.46875 198.066 10.3359C198.664 11.1914 199.145 12.2051 199.508 13.377C199.871 14.5371 200.135 15.8086 200.299 17.1914V18C200.135 19.3242 199.871 20.5547 199.508 21.6914C199.145 22.8281 198.664 23.8242 198.066 24.6797C197.48 25.5234 196.766 26.1797 195.922 26.6484C195.078 27.1172 194.094 27.3516 192.969 27.3516C191.785 27.3516 190.73 27.1113 189.805 26.6309C188.891 26.1504 188.117 25.4766 187.484 24.6094C186.863 23.7422 186.389 22.7227 186.061 21.5508C185.732 20.3789 185.568 19.1016 185.568 17.7188ZM190.631 17.3496V17.7188C190.631 18.5039 190.689 19.2363 190.807 19.916C190.936 20.5957 191.141 21.1992 191.422 21.7266C191.715 22.2422 192.09 22.6465 192.547 22.9395C193.016 23.2207 193.584 23.3613 194.252 23.3613C195.119 23.3613 195.834 23.168 196.396 22.7812C196.959 22.3828 197.387 21.8379 197.68 21.1465C197.984 20.4551 198.16 19.6582 198.207 18.7559V16.4531C198.172 15.7148 198.066 15.0527 197.891 14.4668C197.727 13.8691 197.48 13.3594 197.152 12.9375C196.836 12.5156 196.438 12.1875 195.957 11.9531C195.488 11.7188 194.932 11.6016 194.287 11.6016C193.631 11.6016 193.068 11.7539 192.6 12.0586C192.131 12.3516 191.75 12.7559 191.457 13.2715C191.176 13.7871 190.965 14.3965 190.824 15.0996C190.695 15.791 190.631 16.541 190.631 17.3496ZM216.91 22.7109V14.2383C216.91 13.6289 216.811 13.1074 216.611 12.6738C216.412 12.2285 216.102 11.8828 215.68 11.6367C215.27 11.3906 214.736 11.2676 214.08 11.2676C213.518 11.2676 213.031 11.3672 212.621 11.5664C212.211 11.7539 211.895 12.0293 211.672 12.3926C211.449 12.7441 211.338 13.1602 211.338 13.6406H206.275C206.275 12.832 206.463 12.0645 206.838 11.3379C207.213 10.6113 207.758 9.97266 208.473 9.42188C209.188 8.85938 210.037 8.41992 211.021 8.10352C212.018 7.78711 213.131 7.62891 214.361 7.62891C215.838 7.62891 217.15 7.875 218.299 8.36719C219.447 8.85938 220.35 9.59766 221.006 10.582C221.674 11.5664 222.008 12.7969 222.008 14.2734V22.4121C222.008 23.4551 222.072 24.3105 222.201 24.9785C222.33 25.6348 222.518 26.209 222.764 26.7012V27H217.648C217.402 26.4844 217.215 25.8398 217.086 25.0664C216.969 24.2812 216.91 23.4961 216.91 22.7109ZM217.578 15.416L217.613 18.2812H214.783C214.115 18.2812 213.535 18.3574 213.043 18.5098C212.551 18.6621 212.146 18.8789 211.83 19.1602C211.514 19.4297 211.279 19.7461 211.127 20.1094C210.986 20.4727 210.916 20.8711 210.916 21.3047C210.916 21.7383 211.016 22.1309 211.215 22.4824C211.414 22.8223 211.701 23.0918 212.076 23.291C212.451 23.4785 212.891 23.5723 213.395 23.5723C214.156 23.5723 214.818 23.4199 215.381 23.1152C215.943 22.8105 216.377 22.4355 216.682 21.9902C216.998 21.5449 217.162 21.123 217.174 20.7246L218.51 22.8691C218.322 23.3496 218.064 23.8477 217.736 24.3633C217.42 24.8789 217.016 25.3652 216.523 25.8223C216.031 26.2676 215.439 26.6367 214.748 26.9297C214.057 27.2109 213.236 27.3516 212.287 27.3516C211.08 27.3516 209.984 27.1113 209 26.6309C208.027 26.1387 207.254 25.4648 206.68 24.6094C206.117 23.7422 205.836 22.7578 205.836 21.6562C205.836 20.6602 206.023 19.7754 206.398 19.002C206.773 18.2285 207.324 17.5781 208.051 17.0508C208.789 16.5117 209.709 16.1074 210.811 15.8379C211.912 15.5566 213.189 15.416 214.643 15.416H217.578Z" fill="#FA2408"/>
</svg>
